<svg xmlns="http://www.w3.org/2000/svg" viewBox="0 0 512 512" width="512" height="512">
  <rect width="512" height="512" fill="#0a0f07"/>
  <!-- outer ring -->
  <circle cx="256" cy="256" r="230" fill="#1a1208" stroke="#c9a84c" stroke-width="6"/>
  <!-- segments -->
  <path d="M256,256 L256,34 A222,222 0 0,1 478,256 Z" fill="#c0392b"/>
  <path d="M256,256 L478,256 A222,222 0 0,1 256,478 Z" fill="#1a1a1a"/>
  <path d="M256,256 L256,478 A222,222 0 0,1 34,256 Z" fill="#1a6b2a"/>
  <path d="M256,256 L34,256 A222,222 0 0,1 256,34 Z" fill="#c0392b"/>
  <!-- dividers -->
  <line x1="256" y1="34" x2="256" y2="478" stroke="#c9a84c" stroke-width="3" opacity="0.6"/>
  <line x1="34" y1="256" x2="478" y2="256" stroke="#c9a84c" stroke-width="3" opacity="0.6"/>
  <!-- hub -->
  <circle cx="256" cy="256" r="58" fill="#0e1a0a" stroke="#c9a84c" stroke-width="4"/>
  <circle cx="256" cy="256" r="16" fill="#c9a84c"/>
  <!-- pin -->
  <polygon points="256,14 242,46 270,46" fill="#c9a84c"/>
</svg>
